<svg version="1.0" xmlns="http://www.w3.org/2000/svg" width="700.000000pt" height="700.000000pt" viewBox="0 0 700.000000 700.000000" preserveAspectRatio="xMidYMid meet">
<g transform="translate(0.000000,700.000000) scale(0.100000,-0.100000)" fill="#fff" stroke="none">
<path d="M757 6660 c-26 -5 -61 -17 -77 -27 -16 -10 -59 -35 -94 -57 -36 -21
-78 -52 -93 -68 -32 -33 -102 -141 -136 -208 l-22 -45 0 -2760 c0 -2741 0
-2760 20 -2796 117 -213 118 -214 340 -341 l40 -23 2765 0 2765 0 40 23 c222
127 223 128 340 341 20 36 20 55 20 2796 l0 2760 -22 45 c-36 71 -106 178
-139 210 -32 32 -134 98 -204 133 l-45 22 -2725 1 c-1499 1 -2746 -2 -2773 -6z
m5478 -225 c60 -23 188 -150 203 -202 10 -33 12 -621 12 -2742 0 -2429 -1
-2704 -15 -2738 -21 -51 -130 -161 -182 -184 -40 -19 -111 -19 -2753 -19
-2642 0 -2713 0 -2753 19 -52 23 -161 133 -182 184 -14 34 -15 309 -15 2738 0
2119 2 2709 12 2742 9 30 32 61 83 110 91 88 114 100 210 106 44 4 1263 5
2710 4 2336 -2 2634 -4 2670 -18z"></path>
</g>
</svg>